<?xml version="1.0" encoding="UTF-8"?>
<svg xmlns="http://www.w3.org/2000/svg" fill="none" id="svg-icon-beauty-logo" viewBox="0 0 101 15">
  <title>Beauty logo</title>
  <path fill="currentColor" d="M95.7 14.4V8.3l5-8.3h-3.2l-3.3 5.6L90.9 0h-3.3l5 8.3v6.1zm-17.4 0V2.6h4.3V0H70.9v2.6h4.3v11.7h3.1zm-19.4.2c4 0 5.8-2.2 5.8-5.7V0h-3.1v8.8c0 2.1-.8 3.2-2.6 3.2s-2.7-1.2-2.7-3.2V0h-3.2v8.9c0 3.5 1.8 5.7 5.8 5.7m-22.1-.2l1.1-3.2h4.9l1.1 3.2h3.2L42 0h-3l-5.1 14.4zM40.4 4l1.7 4.9h-3.4zm-12 10.4v-2.6h-7V8.2h4.8V5.7h-4.8V2.6H28V0h-9.8v14.4zM3.1 8.2h2.4c1.7 0 2.7.6 2.7 1.9S7.4 12 5.7 12H3.2V8.2zm0-5.8h2.4c1.7 0 2.4.6 2.4 1.7s-.8 1.7-2.4 1.7H3.2V2.4zm2.9 12c2.7 0 5.2-1.1 5.2-4 0-2.3-1.4-3.2-3.1-3.5a3.12 3.12 0 0 0 2.7-3.3C10.8.7 8.3 0 5.7 0H0v14.4z"></path>
</svg>
