<svg xmlns="http://www.w3.org/2000/svg" id="beauty-logo-icon" viewBox="0 0 339 55" class="site-brand__svg"><path d="M3.9 3.2C3.1 1.2 2.2.8.5.8V.3h7.6v.4c-1.3.1-1.8.3-1.8.8 0 .7.3 1.3 7.7 20.6l7.2-18.2a10.12 10.12 0 00.7-2.4c0-.8-1-.8-1.8-.8V.2h6.4v.5c-1.9.2-2.5.6-3.2 2.4l-9.4 22.4c-.2.4-.3.6-.5.6s-.4-.2-.5-.5zm34 22.6h-7.6v-.5h.1c2.1 0 2.1-1.4 2.1-4.1V7.1c0-2.7-.3-3.1-2.3-3.2v-.5h7V4C35 4 35 4.6 35 8.1v13.2c0 3.3.2 4 2.9 4zm23.7-4.1c-1.1 2.6-3.7 4.4-7.8 4.4-7 0-11.3-4.8-11.3-11.5A11.26 11.26 0 0154.2 3a16.34 16.34 0 016.6 1.4c.3.1.4.2.4.5L61 9.4h-.5a4.6 4.6 0 00-1.3-3.6 8 8 0 00-5.5-1.7c-5.9 0-8.6 4.5-8.6 9.9s2.9 10.9 9 10.9c3.4 0 5.7-1.3 6.8-3.5.2-.5.3-.6.6-.5s.3.3.1.8M84.8 7.2h-.5c-.2-1.7-.3-2.3-3-2.3H77v16.6c0 3.5.4 3.8 2.9 3.8v.6h-7.6v-.5c1.9 0 2.2-.9 2.2-3.2V4.9h-3.7c-3 0-3.6.1-3.7 2.3h-.6l-.1-3.8s3 .2 4.3.2h10.2a22.5 22.5 0 004.1-.2zm15.1-3.1c-4.9 0-8.6 3.2-8.6 9.7 0 6.8 4.1 11.2 9.4 11.2 2.6 0 8.1-1.5 8.1-10.1.1-7-4.2-10.8-8.9-10.8m.1 22.1c-8 0-11.4-6.3-11.4-11.6 0-4.7 3.4-11.5 11.6-11.5 6.6 0 11.5 4.2 11.5 11 0 6.6-4.6 12.1-11.7 12.1m24.5-11.4c2.7 0 4.4-2 4.4-5.1 0-3.3-2-5.2-5.1-5.2-1.7 0-2.2 0-2.2.5v9.1c0 .3 0 .4.5.5a13.4 13.4 0 002.4.2m12 11h-2.6c-3.1 0-4.2-2.1-5.9-4.7-1.4-2.2-2.9-5.4-4.8-5.5l-1.4-.1c-.2 0-.2 0-.2.3v5.8c0 3.5.6 3.7 2.9 3.7v.6H117v-.5c1.8-.1 2.2-.3 2.2-3.7V6.1c0-1.6-1-2-2.6-2v-.6h7.8c4.2 0 7 1.9 7 5.5 0 2.9-2.4 5.4-5 6.2 2.2.8 4 5.9 5.9 7.8s2.6 2.2 4.2 2.2v.6zm12.3 0h-7.6v-.5h.1c2.1 0 2.1-1.4 2.1-4.1V7.1c0-2.7-.3-3.1-2.3-3.2v-.5h7V4c-2.2 0-2.2.6-2.2 4.1v13.2c0 3.3.2 4 2.9 4zm17.6-9.9l-2.8-8.1c-.1-.2-.1-.3-.2-.3s-.2.1-.2.3l-2.7 7.9v.1a.1.1 0 00.1.1h5.8m1.6 9.4c1.1-.1 1.5-.3 1.5-.7a2.7 2.7 0 00-.3-1.2l-2.3-6.2c-.1-.1-.1-.2-.3-.2h-6.3c-.2 0-.2.1-.3.2l-1.6 4.7a8.44 8.44 0 00-.6 2.4q0 .9 1.8.9v.6h-6.5l.1-.5c1.9-.2 2.5-.9 3.2-2.7l6.8-18.4c.4-1 .4-1 .6-1s.3.1.6 1l7 18.2c.7 1.8 1.4 2.9 3.4 2.9l.1.6h-7.1v-.6zm10.5-21.7c0 2-1.4 3.4-3.6 3.7v-.5c1.7-.3 2.4-1.3 2.4-2.1s-.4-1.2-1.3-1.7c-.6-.3-1-.6-1-1.2a1.2 1.2 0 011.2-1.1 2.78 2.78 0 012.3 2.9m10.4 22.5a9.37 9.37 0 01-5.3-1.2v-4.3h.6c.1 3.3 2.3 4.4 5 4.4 3 0 4.6-2 4.6-3.8 0-2.4-1.4-3.8-4.6-5.8-4.3-2.7-5.4-4.7-5.4-6.9 0-3.1 2.4-5.5 6.3-5.5a13.39 13.39 0 014.9.9v3.5h-.6a5.19 5.19 0 00-.6-1.9c-.2-.3-1.1-1.6-4.1-1.6a3.69 3.69 0 00-4 3.6c0 2 1.5 3.2 5 5.5s5.1 4.5 5.1 6.8c.1 3.8-2.7 6.3-6.9 6.3m25.5-1.3v-4.6h.6c.3 3.8 2.9 5 5.9 5 3.5 0 5.5-2.3 5.5-4.6 0-2.7-1.8-4.4-5.4-6.7-4.9-3.1-6-5.5-6-7.7 0-3.6 2.7-6.2 7.3-6.2a18.59 18.59 0 015.3 1v3.8h-.6a4.38 4.38 0 00-.7-2c-.2-.4-1.3-1.9-4.8-1.9-2.7 0-4.7 1.8-4.7 4.2s1.8 3.8 5.8 6.4 5.8 5.1 5.8 7.7c0 6.5-6.5 6.9-8.1 6.9a10.76 10.76 0 01-5.9-1.3m34.8-2.9l-.1 3.9h-14.9v-.6c1.5 0 2.2-.4 2.2-3.3v-16c0-1.4-1-1.9-2.6-1.9v-.6c1.2.1 3 .2 4.6.2h6.3c.6 0 3.6-.1 3.6-.1l-.1 3.8h-.6c-.1-2.3-1.5-2.5-4.2-2.5h-4.3c-.3 0-.3.1-.3.3v8c0 .2 0 .3.2.3h5.3c1 0 1.4-.3 1.5-1.2h.6v4.7h-.6c-.1-1-.1-2-1.8-2.2-.9-.1-4.5-.2-5-.2-.2 0-.2.1-.2.2v8.5c.1 1.5.1 1.5 3.9 1.5a21.27 21.27 0 004.6-.3c.9-.4 1.2-1.2 1.3-2.5zm23.8-.2c-1.1 2.6-3.7 4.4-7.8 4.4-7 0-11.3-4.8-11.3-11.5A11.26 11.26 0 01265.6 3a16.34 16.34 0 016.6 1.4c.3.1.4.2.4.5l-.2 4.5h-.5a4.6 4.6 0 00-1.3-3.6 8 8 0 00-5.5-1.7c-5.9 0-8.6 4.5-8.6 9.9s2.9 10.9 9 10.9c3.4 0 5.7-1.3 6.8-3.5.3-.5.3-.6.6-.5s.3.3.1.8m12.6-6.9c2.7 0 4.4-2 4.4-5.1 0-3.3-2-5.2-5.1-5.2-1.7 0-2.2 0-2.2.5v9.1c0 .3 0 .4.5.5a13.4 13.4 0 002.4.2m12 11H295c-3.1 0-4.2-2.1-5.9-4.7-1.4-2.2-2.9-5.4-4.8-5.5l-1.4-.1c-.2 0-.2 0-.2.3v5.8c0 3.5.6 3.7 2.9 3.7v.6h-7.5v-.5c1.8-.1 2.2-.3 2.2-3.7V6.1c0-1.6-1-2-2.6-2v-.6h7.8c4.2 0 7 1.9 7 5.5 0 2.9-2.4 5.4-5 6.2 2.2.8 4 5.9 5.9 7.8s2.6 2.2 4.2 2.2zm18.4-3.9l-.1 3.9H301v-.6c1.5 0 2.2-.4 2.2-3.3v-16c0-1.4-1-1.9-2.6-1.9v-.6c1.2.1 3 .2 4.6.2h6.3c.6 0 3.6-.1 3.6-.1l-.1 3.8h-.6c-.1-2.3-1.5-2.5-4.2-2.5h-4.3c-.3 0-.3.1-.3.3v8c0 .2 0 .3.2.3h5.3c1 0 1.4-.3 1.5-1.2h.6v4.7h-.6c-.1-1-.1-2-1.8-2.2-.9-.1-4.5-.2-5-.2-.2 0-.2.1-.2.2v8.5c.1 1.5.1 1.5 3.9 1.5a21.27 21.27 0 004.6-.3c.9-.4 1.2-1.2 1.3-2.5zm22.6-14.7h-.5c-.2-1.7-.3-2.3-3-2.3h-4.3v16.6c0 3.5.4 3.8 2.9 3.8v.6h-7.6v-.5c1.9 0 2.2-.9 2.2-3.2V4.9h-3.8c-3 0-3.6.1-3.7 2.3h-.6l-.1-3.8s3 .2 4.3.2h10.2a22.5 22.5 0 004.1-.2z" transform="translate(0 1)"></path><path class="cls-1" d="M132.1 53.7V37.3h11.2v3h-7.6v3.5h5.5v2.9h-5.5v4.1h8v2.9z" transform="translate(0 1)"></path><path class="cls-1" d="M151.4 53.7l5.8-16.5h3.4l5.9 16.5h-3.7l-1.2-3.7H156l-1.3 3.7zm5.5-6.3h3.9l-1.9-5.6z" transform="translate(0 1)"></path><path d="M174.5 47.4V37.3h3.6v10.1c0 2.4.9 3.7 3.1 3.7s3-1.3 3-3.7V37.3h3.6v10.1c0 4-2 6.6-6.6 6.6s-6.7-2.6-6.7-6.6z" transform="translate(0 1)"></path><path d="M201.1 53.7V40.3h-4.9v-3h13.4v3h-4.9v13.4z" transform="translate(0 1)"></path><path class="cls-1" d="M222.6 53.7v-7l-5.7-9.5h3.7l3.8 6.4 3.8-6.4h3.7l-5.7 9.5v7z" transform="translate(0 1)"></path><path class="cls-1" d="M109.6 53.7V37.3h6.6c3 0 5.9.7 5.9 4.1a3.73 3.73 0 01-3.1 3.8c2 .4 3.6 1.4 3.6 4 0 3.3-2.9 4.5-6 4.5zm3.5-9.7h2.7c1.9 0 2.8-.7 2.8-2s-.8-2-2.7-2h-2.7v4zm0 6.9h2.9c2 0 2.9-.8 2.9-2.2s-1-2.2-3-2.2h-2.8v4.4z" transform="translate(0 1)"></path></svg>